<mxfile host="app.diagrams.net" modified="2024-05-25T12:27:04.504Z" agent="Mozilla/5.0 (Linux; Android 10; K) AppleWebKit/537.36 (KHTML, like Gecko) Chrome/125.0.0.0 Safari/537.36" version="24.4.8" etag="eplEW1etUxtLorxHXj54" type="github">
  <diagram name="Page-1" id="oLdcZH0GFptXbW14uiif">
    <mxGraphModel>
      <root>
        <mxCell id="0" />
        <mxCell id="1" parent="0" />
      </root>
    </mxGraphModel>
  </diagram>
</mxfile>
